<svg width="128" height="128" viewBox="0 0 128 128" fill="none" xmlns="http://www.w3.org/2000/svg">
<g id="Group 72748">
<g id="Group 1637">
<ellipse id="Ellipse 102" cx="1.76426" cy="1.76426" rx="1.76426" ry="1.76426" fill="#D1D893"/>
<ellipse id="Ellipse 110" cx="1.76426" cy="37.0494" rx="1.76426" ry="1.76426" fill="#D1D893"/>
<ellipse id="Ellipse 106" cx="37.0494" cy="1.76426" rx="1.76426" ry="1.76426" fill="#D1D893"/>
<ellipse id="Ellipse 111" cx="37.0494" cy="37.0494" rx="1.76426" ry="1.76426" fill="#D1D893"/>
<ellipse id="Ellipse 104" cx="1.76426" cy="19.4068" rx="1.76426" ry="1.76426" fill="#D1D893"/>
<ellipse id="Ellipse 112" cx="1.76426" cy="54.6919" rx="1.76426" ry="1.76426" fill="#D1D893"/>
<ellipse id="Ellipse 107" cx="37.0494" cy="19.4068" rx="1.76426" ry="1.76426" fill="#D1D893"/>
<ellipse id="Ellipse 113" cx="37.0494" cy="54.6919" rx="1.76426" ry="1.76426" fill="#D1D893"/>
<ellipse id="Ellipse 103" cx="19.4068" cy="1.76426" rx="1.76426" ry="1.76426" fill="#D1D893"/>
<ellipse id="Ellipse 114" cx="19.4068" cy="37.0494" rx="1.76426" ry="1.76426" fill="#D1D893"/>
<ellipse id="Ellipse 108" cx="54.69" cy="1.76426" rx="1.76426" ry="1.76426" fill="#D1D893"/>
<ellipse id="Ellipse 115" cx="54.69" cy="37.0494" rx="1.76426" ry="1.76426" fill="#D1D893"/>
<ellipse id="Ellipse 105" cx="19.4068" cy="19.4068" rx="1.76426" ry="1.76426" fill="#D1D893"/>
<ellipse id="Ellipse 116" cx="19.4068" cy="54.6919" rx="1.76426" ry="1.76426" fill="#D1D893"/>
<ellipse id="Ellipse 109" cx="54.69" cy="19.4068" rx="1.76426" ry="1.76426" fill="#D1D893"/>
<ellipse id="Ellipse 117" cx="54.69" cy="54.6919" rx="1.76426" ry="1.76426" fill="#D1D893"/>
</g>
<g id="Group 1639">
<ellipse id="Ellipse 102_2" cx="1.76426" cy="72.3343" rx="1.76426" ry="1.76426" fill="#D1D893"/>
<ellipse id="Ellipse 110_2" cx="1.76426" cy="107.619" rx="1.76426" ry="1.76426" fill="#D1D893"/>
<ellipse id="Ellipse 106_2" cx="37.0494" cy="72.3343" rx="1.76426" ry="1.76426" fill="#D1D893"/>
<ellipse id="Ellipse 111_2" cx="37.0494" cy="107.619" rx="1.76426" ry="1.76426" fill="#D1D893"/>
<ellipse id="Ellipse 104_2" cx="1.76426" cy="89.9769" rx="1.76426" ry="1.76426" fill="#D1D893"/>
<ellipse id="Ellipse 112_2" cx="1.76426" cy="125.262" rx="1.76426" ry="1.76426" fill="#D1D893"/>
<ellipse id="Ellipse 107_2" cx="37.0494" cy="89.9769" rx="1.76426" ry="1.76426" fill="#D1D893"/>
<ellipse id="Ellipse 113_2" cx="37.0494" cy="125.262" rx="1.76426" ry="1.76426" fill="#D1D893"/>
<ellipse id="Ellipse 103_2" cx="19.4068" cy="72.3343" rx="1.76426" ry="1.76426" fill="#D1D893"/>
<ellipse id="Ellipse 114_2" cx="19.4068" cy="107.619" rx="1.76426" ry="1.76426" fill="#D1D893"/>
<ellipse id="Ellipse 108_2" cx="54.69" cy="72.3343" rx="1.76426" ry="1.76426" fill="#D1D893"/>
<ellipse id="Ellipse 115_2" cx="54.69" cy="107.619" rx="1.76426" ry="1.76426" fill="#D1D893"/>
<ellipse id="Ellipse 105_2" cx="19.4068" cy="89.9769" rx="1.76426" ry="1.76426" fill="#D1D893"/>
<ellipse id="Ellipse 116_2" cx="19.4068" cy="125.262" rx="1.76426" ry="1.76426" fill="#D1D893"/>
<ellipse id="Ellipse 109_2" cx="54.69" cy="89.9769" rx="1.76426" ry="1.76426" fill="#D1D893"/>
<ellipse id="Ellipse 117_2" cx="54.69" cy="125.262" rx="1.76426" ry="1.76426" fill="#D1D893"/>
</g>
<g id="Group 1638">
<ellipse id="Ellipse 102_3" cx="72.3312" cy="1.76426" rx="1.76426" ry="1.76426" fill="#D1D893"/>
<ellipse id="Ellipse 110_3" cx="72.3312" cy="37.0494" rx="1.76426" ry="1.76426" fill="#D1D893"/>
<ellipse id="Ellipse 106_3" cx="107.614" cy="1.76426" rx="1.76426" ry="1.76426" fill="#D1D893"/>
<ellipse id="Ellipse 111_3" cx="107.614" cy="37.0494" rx="1.76426" ry="1.76426" fill="#D1D893"/>
<ellipse id="Ellipse 104_3" cx="72.3312" cy="19.4068" rx="1.76426" ry="1.76426" fill="#D1D893"/>
<ellipse id="Ellipse 112_3" cx="72.3312" cy="54.6919" rx="1.76426" ry="1.76426" fill="#D1D893"/>
<ellipse id="Ellipse 107_3" cx="107.614" cy="19.4068" rx="1.76426" ry="1.76426" fill="#D1D893"/>
<ellipse id="Ellipse 113_3" cx="107.614" cy="54.6919" rx="1.76426" ry="1.76426" fill="#D1D893"/>
<ellipse id="Ellipse 103_3" cx="89.9737" cy="1.76426" rx="1.76426" ry="1.76426" fill="#D1D893"/>
<ellipse id="Ellipse 114_3" cx="89.9737" cy="37.0494" rx="1.76426" ry="1.76426" fill="#D1D893"/>
<ellipse id="Ellipse 108_3" cx="125.257" cy="1.76426" rx="1.76426" ry="1.76426" fill="#D1D893"/>
<ellipse id="Ellipse 115_3" cx="125.257" cy="37.0494" rx="1.76426" ry="1.76426" fill="#D1D893"/>
<ellipse id="Ellipse 105_3" cx="89.9737" cy="19.4068" rx="1.76426" ry="1.76426" fill="#D1D893"/>
<ellipse id="Ellipse 116_3" cx="89.9737" cy="54.6919" rx="1.76426" ry="1.76426" fill="#D1D893"/>
<ellipse id="Ellipse 109_3" cx="125.257" cy="19.4068" rx="1.76426" ry="1.76426" fill="#D1D893"/>
<ellipse id="Ellipse 117_3" cx="125.257" cy="54.6919" rx="1.76426" ry="1.76426" fill="#D1D893"/>
</g>
<g id="Group 1640">
<ellipse id="Ellipse 102_4" cx="72.3312" cy="72.3343" rx="1.76426" ry="1.76426" fill="#D1D893"/>
<ellipse id="Ellipse 110_4" cx="72.3312" cy="107.619" rx="1.76426" ry="1.76426" fill="#D1D893"/>
<ellipse id="Ellipse 106_4" cx="107.614" cy="72.3343" rx="1.76426" ry="1.76426" fill="#D1D893"/>
<ellipse id="Ellipse 111_4" cx="107.614" cy="107.619" rx="1.76426" ry="1.76426" fill="#D1D893"/>
<ellipse id="Ellipse 104_4" cx="72.3312" cy="89.9769" rx="1.76426" ry="1.76426" fill="#D1D893"/>
<ellipse id="Ellipse 112_4" cx="72.3312" cy="125.262" rx="1.76426" ry="1.76426" fill="#D1D893"/>
<ellipse id="Ellipse 107_4" cx="107.614" cy="89.9769" rx="1.76426" ry="1.76426" fill="#D1D893"/>
<ellipse id="Ellipse 113_4" cx="107.614" cy="125.262" rx="1.76426" ry="1.76426" fill="#D1D893"/>
<ellipse id="Ellipse 103_4" cx="89.9737" cy="72.3343" rx="1.76426" ry="1.76426" fill="#D1D893"/>
<ellipse id="Ellipse 114_4" cx="89.9737" cy="107.619" rx="1.76426" ry="1.76426" fill="#D1D893"/>
<ellipse id="Ellipse 108_4" cx="125.257" cy="72.3343" rx="1.76426" ry="1.76426" fill="#D1D893"/>
<ellipse id="Ellipse 115_4" cx="125.257" cy="107.619" rx="1.76426" ry="1.76426" fill="#D1D893"/>
<ellipse id="Ellipse 105_4" cx="89.9737" cy="89.9769" rx="1.76426" ry="1.76426" fill="#D1D893"/>
<ellipse id="Ellipse 116_4" cx="89.9737" cy="125.262" rx="1.76426" ry="1.76426" fill="#D1D893"/>
<ellipse id="Ellipse 109_4" cx="125.257" cy="89.9769" rx="1.76426" ry="1.76426" fill="#D1D893"/>
<ellipse id="Ellipse 117_4" cx="125.257" cy="125.262" rx="1.76426" ry="1.76426" fill="#D1D893"/>
</g>
</g>
</svg>
