<svg width="27" height="27" viewBox="0 0 27 27" fill="none" xmlns="http://www.w3.org/2000/svg">
<g id="carbon:mobile-add" clip-path="url(#clip0_239_66)">
<g id="Group">
<path id="Vector" fill-rule="evenodd" clip-rule="evenodd" d="M4.71274 3.31974L21.7669 3.25582C22.2158 3.25418 22.6607 3.34483 23.0759 3.52256C23.4911 3.70029 23.8685 3.9616 24.1865 4.29152C24.5045 4.62143 24.7568 5.01346 24.9289 5.44511C25.1011 5.87677 25.1897 6.33956 25.1897 6.80695V15.6883C25.1897 16.6301 24.8303 17.5334 24.1907 18.1994C23.551 18.8653 22.6835 19.2395 21.7789 19.2395H4.72468C3.82007 19.2395 2.95251 18.8653 2.31285 18.1994C1.6732 17.5334 1.31384 16.6301 1.31384 15.6883V6.87087C1.31384 5.9312 1.67155 5.02984 2.30863 4.36423C2.94571 3.69862 3.8102 3.32303 4.71274 3.31974Z" stroke="white" stroke-width="2.17053" stroke-linecap="round" stroke-linejoin="round"/>
<path id="Vector_2" d="M16.6062 10.5392L12.0578 6.9881C11.9312 6.88918 11.7805 6.82894 11.6228 6.81413C11.4651 6.79933 11.3065 6.83054 11.1649 6.90427C11.0232 6.97801 10.9041 7.09135 10.8209 7.23159C10.7376 7.37184 10.6935 7.53346 10.6935 7.69833V14.8006C10.6935 14.9655 10.7376 15.1271 10.8209 15.2673C10.9041 15.4076 11.0232 15.5209 11.1649 15.5946C11.3065 15.6684 11.4651 15.6996 11.6228 15.6848C11.7805 15.67 11.9312 15.6097 12.0578 15.5108L16.6062 11.9597C16.7121 11.877 16.7981 11.7698 16.8573 11.6465C16.9165 11.5232 16.9473 11.3873 16.9473 11.2495C16.9473 11.1116 16.9165 10.9757 16.8573 10.8524C16.7981 10.7292 16.7121 10.6219 16.6062 10.5392Z" fill="#C17B31"/>
<path id="Vector_3" d="M4.66342 22.7906H21.779" stroke="white" stroke-width="2.17053" stroke-linecap="round" stroke-linejoin="round"/>
</g>
</g>
<defs>
<clipPath id="clip0_239_66">
<rect width="26.0464" height="26.0464" fill="white" transform="translate(0.499908)"/>
</clipPath>
</defs>
</svg>
