<svg width="33" height="32" viewBox="0 0 33 32" fill="none" xmlns="http://www.w3.org/2000/svg">
<g id="carbon:mobile-add">
<path id="Vector" d="M28.9536 24H24.9536V20H22.9536V24H18.9536V26H22.9536V30H24.9536V26H28.9536V24Z" fill="#C17B31"/>
<path id="Vector_2" d="M10.9536 28V10H22.9536V17H24.9536V6C24.9531 5.46973 24.7422 4.96133 24.3672 4.58637C23.9923 4.21141 23.4839 4.00053 22.9536 4H10.9536C10.4233 4.00053 9.91494 4.21141 9.53998 4.58637C9.16503 4.96133 8.95414 5.46973 8.95361 6V28C8.95414 28.5303 9.16503 29.0387 9.53998 29.4136C9.91494 29.7886 10.4233 29.9995 10.9536 30H16.9536V28H10.9536ZM10.9536 6H22.9536V8H10.9536V6Z" fill="white"/>
</g>
</svg>
