<svg width="33" height="32" viewBox="0 0 33 32" fill="none" xmlns="http://www.w3.org/2000/svg">
<g id="carbon:mobile-add">
<g id="Group">
<path id="Vector" fill-rule="evenodd" clip-rule="evenodd" d="M6.78138 22.6703V25.3376C6.78138 25.6913 6.92189 26.0306 7.172 26.2807C7.42211 26.5308 7.76134 26.6713 8.11505 26.6713H28.12C28.4737 26.6713 28.8129 26.5308 29.063 26.2807C29.3131 26.0306 29.4536 25.6913 29.4536 25.3376V14.6683C29.4536 14.3146 29.3131 13.9754 29.063 13.7253C28.8129 13.4752 28.4737 13.3347 28.12 13.3347H26.4596V15.7813C26.6423 16.0539 26.8894 16.2772 27.179 16.4316C27.4686 16.5859 27.7918 16.6665 28.12 16.6661V23.3371C27.5914 23.3401 27.0855 23.5522 26.7127 23.927C26.34 24.3019 26.1308 24.809 26.1308 25.3376H10.1122C10.1052 24.812 9.89176 24.3103 9.51796 23.9407C9.14416 23.5712 8.64001 23.3635 8.11438 23.3625V22.6703H6.78138Z" fill="#C17B31"/>
<path id="Vector_2" d="M16.4571 14.6683C16.4571 15.3757 16.1761 16.0542 15.6759 16.5544C15.1756 17.0546 14.4972 17.3356 13.7898 17.3356C13.0824 17.3356 12.4039 17.0546 11.9037 16.5544C11.4035 16.0542 11.1225 15.3757 11.1225 14.6683C11.1225 13.9609 11.4035 13.2824 11.9037 12.7822C12.4039 12.282 13.0824 12.001 13.7898 12.001C14.4972 12.001 15.1756 12.282 15.6759 12.7822C16.1761 13.2824 16.4571 13.9609 16.4571 14.6683Z" fill="#C17B31"/>
<path id="Vector_3" fill-rule="evenodd" clip-rule="evenodd" d="M3.78731 8C3.4336 8 3.09437 8.14051 2.84426 8.39062C2.59415 8.64073 2.45364 8.97995 2.45364 9.33366V20.003C2.45364 20.3567 2.59415 20.6959 2.84426 20.946C3.09437 21.1961 3.4336 21.3366 3.78731 21.3366H23.7922C24.146 21.3366 24.4852 21.1961 24.7353 20.946C24.9854 20.6959 25.1259 20.3567 25.1259 20.003V9.33366C25.1259 8.97995 24.9854 8.64073 24.7353 8.39062C24.4852 8.14051 24.146 8 23.7922 8H3.78731ZM5.78647 9.33366H21.7924C21.7929 9.8637 22.0039 10.3719 22.3789 10.7465C22.7538 11.1211 23.2622 11.3315 23.7922 11.3315V18.0025C23.2635 18.0051 22.7574 18.2171 22.3846 18.592C22.0118 18.9669 21.8027 19.4743 21.8031 20.003H5.78513C5.77847 19.4773 5.56514 18.9753 5.19127 18.6057C4.8174 18.2361 4.31305 18.0285 3.78731 18.0278V11.3342C4.04995 11.3342 4.31002 11.2824 4.55266 11.1819C4.7953 11.0813 5.01574 10.9339 5.2014 10.7481C5.38705 10.5624 5.53428 10.3418 5.63467 10.0991C5.73506 9.85641 5.78664 9.59631 5.78647 9.33366Z" fill="white"/>
</g>
</g>
</svg>
