<svg width="33" height="32" viewBox="0 0 33 32" fill="none" xmlns="http://www.w3.org/2000/svg">
<g id="carbon:flight-schedule">
<path id="Vector" fill-rule="evenodd" clip-rule="evenodd" d="M25.9537 23L30.9537 25V23L25.9537 20.5V18C25.9537 17.7348 25.8483 17.4804 25.6608 17.2929C25.4732 17.1054 25.2189 17 24.9537 17C24.6885 17 24.4341 17.1054 24.2466 17.2929C24.059 17.4804 23.9537 17.7348 23.9537 18V20.5L18.9537 23V25L23.9537 23V26.5L21.9537 28V29L24.9537 28L27.9537 29V28L25.9537 26.5V23Z" fill="#C17B31"/>
<path id="Vector_2" fill-rule="evenodd" clip-rule="evenodd" d="M26.9537 4H22.9537V2H20.9537V4H12.9537V2H10.9537V4H6.95367C6.42324 4 5.91453 4.21071 5.53946 4.58579C5.16439 4.96086 4.95367 5.46957 4.95367 6V26C4.95367 26.5304 5.16439 27.0391 5.53946 27.4142C5.91453 27.7893 6.42324 28 6.95367 28H16.9537V26H6.95367V6H10.9537V8H12.9537V6H20.9537V8H22.9537V6H26.9537V13H28.9537V6C28.9537 5.46957 28.743 4.96086 28.3679 4.58579C27.9928 4.21071 27.4841 4 26.9537 4Z" fill="white"/>
</g>
</svg>
