<svg width="26" height="26" viewBox="0 0 26 26" fill="none" xmlns="http://www.w3.org/2000/svg">
<g id="pajamas:mobile">
<path id="Vector" fill-rule="evenodd" clip-rule="evenodd" d="M8.12502 2.4375H17.875C18.0905 2.4375 18.2972 2.5231 18.4495 2.67548C18.6019 2.82785 18.6875 3.03451 18.6875 3.25V22.75C18.6875 22.9655 18.6019 23.1722 18.4495 23.3245C18.2972 23.4769 18.0905 23.5625 17.875 23.5625H8.12502C7.90953 23.5625 7.70287 23.4769 7.55049 23.3245C7.39812 23.1722 7.31252 22.9655 7.31252 22.75V3.25C7.31252 3.03451 7.39812 2.82785 7.55049 2.67548C7.70287 2.5231 7.90953 2.4375 8.12502 2.4375ZM4.87502 3.25C4.87502 2.38805 5.21743 1.5614 5.82692 0.951903C6.43641 0.34241 7.26306 0 8.12502 0L17.875 0C18.737 0 19.5636 0.34241 20.1731 0.951903C20.7826 1.5614 21.125 2.38805 21.125 3.25V22.75C21.125 23.612 20.7826 24.4386 20.1731 25.0481C19.5636 25.6576 18.737 26 17.875 26H8.12502C7.26306 26 6.43641 25.6576 5.82692 25.0481C5.21743 24.4386 4.87502 23.612 4.87502 22.75V3.25ZM13 21.125C13.431 21.125 13.8443 20.9538 14.1491 20.649C14.4538 20.3443 14.625 19.931 14.625 19.5C14.625 19.069 14.4538 18.6557 14.1491 18.351C13.8443 18.0462 13.431 17.875 13 17.875C12.569 17.875 12.1557 18.0462 11.851 18.351C11.5462 18.6557 11.375 19.069 11.375 19.5C11.375 19.931 11.5462 20.3443 11.851 20.649C12.1557 20.9538 12.569 21.125 13 21.125Z" fill="white"/>
<path id="Vector_2" d="M15.0968 19.7097C15.0968 20.2658 14.8759 20.7991 14.4827 21.1923C14.0894 21.5856 13.5561 21.8065 13 21.8065C12.4439 21.8065 11.9106 21.5856 11.5174 21.1923C11.1242 20.7991 10.9032 20.2658 10.9032 19.7097C10.9032 19.1536 11.1242 18.6203 11.5174 18.227C11.9106 17.8338 12.4439 17.6129 13 17.6129C13.5561 17.6129 14.0894 17.8338 14.4827 18.227C14.8759 18.6203 15.0968 19.1536 15.0968 19.7097Z" fill="#C17B31"/>
</g>
</svg>
