<svg width="26" height="26" viewBox="0 0 26 26" fill="none" xmlns="http://www.w3.org/2000/svg">
<path id="Vector" d="M2.92404 0.0761719C2.17034 0.0815408 1.44903 0.383331 0.916066 0.916295C0.383103 1.44926 0.0813119 2.17057 0.075943 2.92427V22.2914C0.075943 23.8487 1.3667 25.1395 2.92404 25.1395H22.2911C23.8485 25.1395 25.1392 23.8487 25.1392 22.2914V2.92427C25.1392 1.36693 23.8485 0.0761719 22.2911 0.0761719H2.92404ZM2.92404 2.35465H22.2911C22.6158 2.35465 22.8608 2.59959 22.8608 2.92427V22.2914C22.8623 22.3666 22.8486 22.4414 22.8206 22.5112C22.7925 22.581 22.7506 22.6444 22.6974 22.6976C22.6442 22.7508 22.5808 22.7927 22.5109 22.8208C22.4411 22.8489 22.3664 22.8625 22.2911 22.861H2.92404C2.84877 22.8627 2.77393 22.8491 2.70405 22.8211C2.63417 22.7931 2.57069 22.7512 2.51745 22.698C2.46421 22.6447 2.42231 22.5812 2.39429 22.5114C2.36627 22.4415 2.35271 22.3666 2.35442 22.2914V2.92427C2.35442 2.59959 2.59936 2.35465 2.92404 2.35465ZM6.27113 4.31301C6.01006 4.30671 5.75036 4.35269 5.50732 4.44825C5.26428 4.54381 5.04281 4.68701 4.85594 4.86943C4.66906 5.05185 4.52056 5.2698 4.41917 5.51047C4.31778 5.75113 4.26555 6.00964 4.26555 6.27079C4.26555 6.53194 4.31778 6.79045 4.41917 7.03112C4.52056 7.27178 4.66906 7.48974 4.85594 7.67216C5.04281 7.85458 5.26428 7.99778 5.50732 8.09334C5.75036 8.18889 6.01006 8.23488 6.27113 8.22858C6.78219 8.21625 7.26817 8.00457 7.62527 7.63876C7.98236 7.27294 8.18226 6.782 8.18226 6.27079C8.18226 5.75958 7.98236 5.26864 7.62527 4.90283C7.26817 4.53701 6.78219 4.32534 6.27113 4.31301ZM16.5585 9.51022C14.9259 9.51022 13.8402 10.4045 13.3914 11.2544H13.3196V9.75972H10.1149V20.5825H13.462V15.2417C13.462 13.8314 13.7423 12.4654 15.491 12.4654C17.2135 12.4654 17.2363 14.0581 17.2363 15.3135V20.5825H20.5823V14.6368C20.5823 11.7272 19.9625 9.51022 16.5585 9.51022ZM4.63291 9.75972V20.5825H8.01531V9.75972H4.63291Z" fill="white"/>
</svg>
