<svg width="21" height="21" viewBox="0 0 21 21" fill="none" xmlns="http://www.w3.org/2000/svg">
<g id="mingcute:building-1-line" clip-path="url(#clip0_107_62)">
<g id="Group">
<path id="Vector" d="M10.8674 2.58691C11.2892 2.58678 11.6955 2.74609 12.0047 3.0329C12.314 3.31971 12.5035 3.71283 12.5351 4.13345L12.5393 4.25884V7.6027H15.0472C15.469 7.60257 15.8753 7.76187 16.1846 8.04868C16.4939 8.33549 16.6833 8.72861 16.7149 9.14923L16.7191 9.27463V15.9623H17.5551C17.7682 15.9626 17.9731 16.0442 18.128 16.1904C18.283 16.3367 18.3762 16.5366 18.3887 16.7493C18.4012 16.962 18.332 17.1715 18.1952 17.3349C18.0585 17.4982 17.8645 17.6033 17.6529 17.6284L17.5551 17.6343H2.50774C2.29467 17.634 2.08973 17.5524 1.93479 17.4062C1.77986 17.2599 1.68662 17.06 1.67414 16.8473C1.66165 16.6346 1.73085 16.4251 1.86761 16.2618C2.00437 16.0984 2.19835 15.9934 2.40993 15.9682L2.50774 15.9623H3.3437V4.25884C3.34357 3.83703 3.50287 3.43076 3.78969 3.12147C4.0765 2.81218 4.46961 2.62273 4.89023 2.59109L5.01563 2.58691H10.8674ZM15.0472 9.27463H12.5393V15.9623H15.0472V9.27463ZM10.8674 4.25884H5.01563V15.9623H10.8674V4.25884ZM9.19545 12.6185V14.2904H6.68756V12.6185H9.19545ZM9.19545 9.27463V10.9466H6.68756V9.27463H9.19545ZM9.19545 5.93077V7.6027H6.68756V5.93077H9.19545Z" fill="white"/>
</g>
</g>
<defs>
<clipPath id="clip0_107_62">
<rect width="20.0631" height="20.0631" fill="white" transform="translate(0 0.0791016)"/>
</clipPath>
</defs>
</svg>
