<svg width="130" height="130" viewBox="0 0 130 130" fill="none" xmlns="http://www.w3.org/2000/svg">
<g id="Group 72757">
<g id="Group 1637">
<ellipse id="Ellipse 102" cx="2.20703" cy="2.3573" rx="1.79687" ry="1.79687" fill="#CDCBCC"/>
<ellipse id="Ellipse 110" cx="2.20703" cy="38.2944" rx="1.79687" ry="1.79687" fill="#CDCBCC"/>
<ellipse id="Ellipse 106" cx="38.144" cy="2.3573" rx="1.79687" ry="1.79687" fill="#CDCBCC"/>
<ellipse id="Ellipse 111" cx="38.144" cy="38.2944" rx="1.79687" ry="1.79687" fill="#CDCBCC"/>
<ellipse id="Ellipse 104" cx="2.20703" cy="20.3268" rx="1.79687" ry="1.79687" fill="#CDCBCC"/>
<ellipse id="Ellipse 112" cx="2.20703" cy="56.2639" rx="1.79687" ry="1.79687" fill="#CDCBCC"/>
<ellipse id="Ellipse 107" cx="38.144" cy="20.3268" rx="1.79687" ry="1.79687" fill="#CDCBCC"/>
<ellipse id="Ellipse 113" cx="38.144" cy="56.2639" rx="1.79687" ry="1.79687" fill="#CDCBCC"/>
<ellipse id="Ellipse 103" cx="20.1758" cy="2.3573" rx="1.79687" ry="1.79687" fill="#CDCBCC"/>
<ellipse id="Ellipse 114" cx="20.1758" cy="38.2944" rx="1.79687" ry="1.79687" fill="#CDCBCC"/>
<ellipse id="Ellipse 108" cx="56.1113" cy="2.3573" rx="1.79687" ry="1.79687" fill="#CDCBCC"/>
<ellipse id="Ellipse 115" cx="56.1113" cy="38.2944" rx="1.79687" ry="1.79687" fill="#CDCBCC"/>
<ellipse id="Ellipse 105" cx="20.1758" cy="20.3268" rx="1.79687" ry="1.79687" fill="#CDCBCC"/>
<ellipse id="Ellipse 116" cx="20.1758" cy="56.2639" rx="1.79687" ry="1.79687" fill="#CDCBCC"/>
<ellipse id="Ellipse 109" cx="56.1113" cy="20.3268" rx="1.79687" ry="1.79687" fill="#CDCBCC"/>
<ellipse id="Ellipse 117" cx="56.1113" cy="56.2639" rx="1.79687" ry="1.79687" fill="#CDCBCC"/>
</g>
<g id="Group 1639">
<ellipse id="Ellipse 102_2" cx="2.20703" cy="74.2328" rx="1.79687" ry="1.79687" fill="#CDCBCC"/>
<ellipse id="Ellipse 110_2" cx="2.20703" cy="110.17" rx="1.79687" ry="1.79687" fill="#CDCBCC"/>
<ellipse id="Ellipse 106_2" cx="38.144" cy="74.2328" rx="1.79687" ry="1.79687" fill="#CDCBCC"/>
<ellipse id="Ellipse 111_2" cx="38.144" cy="110.17" rx="1.79687" ry="1.79687" fill="#CDCBCC"/>
<ellipse id="Ellipse 104_2" cx="2.20703" cy="92.2023" rx="1.79687" ry="1.79687" fill="#CDCBCC"/>
<ellipse id="Ellipse 112_2" cx="2.20703" cy="128.139" rx="1.79687" ry="1.79687" fill="#CDCBCC"/>
<ellipse id="Ellipse 107_2" cx="38.144" cy="92.2023" rx="1.79687" ry="1.79687" fill="#CDCBCC"/>
<ellipse id="Ellipse 113_2" cx="38.144" cy="128.139" rx="1.79687" ry="1.79687" fill="#CDCBCC"/>
<ellipse id="Ellipse 103_2" cx="20.1758" cy="74.2328" rx="1.79687" ry="1.79687" fill="#CDCBCC"/>
<ellipse id="Ellipse 114_2" cx="20.1758" cy="110.17" rx="1.79687" ry="1.79687" fill="#CDCBCC"/>
<ellipse id="Ellipse 108_2" cx="56.1113" cy="74.2328" rx="1.79687" ry="1.79687" fill="#CDCBCC"/>
<ellipse id="Ellipse 115_2" cx="56.1113" cy="110.17" rx="1.79687" ry="1.79687" fill="#CDCBCC"/>
<ellipse id="Ellipse 105_2" cx="20.1758" cy="92.2023" rx="1.79687" ry="1.79687" fill="#CDCBCC"/>
<ellipse id="Ellipse 116_2" cx="20.1758" cy="128.139" rx="1.79687" ry="1.79687" fill="#CDCBCC"/>
<ellipse id="Ellipse 109_2" cx="56.1113" cy="92.2023" rx="1.79687" ry="1.79687" fill="#CDCBCC"/>
<ellipse id="Ellipse 117_2" cx="56.1113" cy="128.139" rx="1.79687" ry="1.79687" fill="#CDCBCC"/>
</g>
<g id="Group 1638">
<ellipse id="Ellipse 102_3" cx="74.0781" cy="2.3573" rx="1.79687" ry="1.79687" fill="#CDCBCC"/>
<ellipse id="Ellipse 110_3" cx="74.0781" cy="38.2944" rx="1.79687" ry="1.79687" fill="#CDCBCC"/>
<ellipse id="Ellipse 106_3" cx="110.014" cy="2.3573" rx="1.79687" ry="1.79687" fill="#CDCBCC"/>
<ellipse id="Ellipse 111_3" cx="110.014" cy="38.2944" rx="1.79687" ry="1.79687" fill="#CDCBCC"/>
<ellipse id="Ellipse 104_3" cx="74.0781" cy="20.3268" rx="1.79687" ry="1.79687" fill="#CDCBCC"/>
<ellipse id="Ellipse 112_3" cx="74.0781" cy="56.2639" rx="1.79687" ry="1.79687" fill="#CDCBCC"/>
<ellipse id="Ellipse 107_3" cx="110.014" cy="20.3268" rx="1.79687" ry="1.79687" fill="#CDCBCC"/>
<ellipse id="Ellipse 113_3" cx="110.014" cy="56.2639" rx="1.79687" ry="1.79687" fill="#CDCBCC"/>
<ellipse id="Ellipse 103_3" cx="92.0469" cy="2.3573" rx="1.79687" ry="1.79687" fill="#CDCBCC"/>
<ellipse id="Ellipse 114_3" cx="92.0469" cy="38.2944" rx="1.79687" ry="1.79687" fill="#CDCBCC"/>
<ellipse id="Ellipse 108_3" cx="127.982" cy="2.3573" rx="1.79687" ry="1.79687" fill="#CDCBCC"/>
<ellipse id="Ellipse 115_3" cx="127.982" cy="38.2944" rx="1.79687" ry="1.79687" fill="#CDCBCC"/>
<ellipse id="Ellipse 105_3" cx="92.0469" cy="20.3268" rx="1.79687" ry="1.79687" fill="#CDCBCC"/>
<ellipse id="Ellipse 116_3" cx="92.0469" cy="56.2639" rx="1.79687" ry="1.79687" fill="#CDCBCC"/>
<ellipse id="Ellipse 109_3" cx="127.982" cy="20.3268" rx="1.79687" ry="1.79687" fill="#CDCBCC"/>
<ellipse id="Ellipse 117_3" cx="127.982" cy="56.2639" rx="1.79687" ry="1.79687" fill="#CDCBCC"/>
</g>
<g id="Group 1640">
<ellipse id="Ellipse 102_4" cx="74.0781" cy="74.2328" rx="1.79687" ry="1.79687" fill="#CDCBCC"/>
<ellipse id="Ellipse 110_4" cx="74.0781" cy="110.17" rx="1.79687" ry="1.79687" fill="#CDCBCC"/>
<ellipse id="Ellipse 106_4" cx="110.014" cy="74.2328" rx="1.79687" ry="1.79687" fill="#CDCBCC"/>
<ellipse id="Ellipse 111_4" cx="110.014" cy="110.17" rx="1.79687" ry="1.79687" fill="#CDCBCC"/>
<ellipse id="Ellipse 104_4" cx="74.0781" cy="92.2023" rx="1.79687" ry="1.79687" fill="#CDCBCC"/>
<ellipse id="Ellipse 112_4" cx="74.0781" cy="128.139" rx="1.79687" ry="1.79687" fill="#CDCBCC"/>
<ellipse id="Ellipse 107_4" cx="110.014" cy="92.2023" rx="1.79687" ry="1.79687" fill="#CDCBCC"/>
<ellipse id="Ellipse 113_4" cx="110.014" cy="128.139" rx="1.79687" ry="1.79687" fill="#CDCBCC"/>
<ellipse id="Ellipse 103_4" cx="92.0469" cy="74.2328" rx="1.79687" ry="1.79687" fill="#CDCBCC"/>
<ellipse id="Ellipse 114_4" cx="92.0469" cy="110.17" rx="1.79687" ry="1.79687" fill="#CDCBCC"/>
<ellipse id="Ellipse 108_4" cx="127.982" cy="74.2328" rx="1.79687" ry="1.79687" fill="#CDCBCC"/>
<ellipse id="Ellipse 115_4" cx="127.982" cy="110.17" rx="1.79687" ry="1.79687" fill="#CDCBCC"/>
<ellipse id="Ellipse 105_4" cx="92.0469" cy="92.2023" rx="1.79687" ry="1.79687" fill="#CDCBCC"/>
<ellipse id="Ellipse 116_4" cx="92.0469" cy="128.139" rx="1.79687" ry="1.79687" fill="#CDCBCC"/>
<ellipse id="Ellipse 109_4" cx="127.982" cy="92.2023" rx="1.79687" ry="1.79687" fill="#CDCBCC"/>
<ellipse id="Ellipse 117_4" cx="127.982" cy="128.139" rx="1.79687" ry="1.79687" fill="#CDCBCC"/>
</g>
</g>
</svg>
