<svg width="16" height="16" viewBox="0 0 16 16" fill="none" xmlns="http://www.w3.org/2000/svg">
<g id="pajamas:issue-type-maintenance">
<path id="Vector" fill-rule="evenodd" clip-rule="evenodd" d="M11.25 2.49992C10.8985 2.49974 10.5518 2.58192 10.2378 2.73988C9.92377 2.89783 9.65112 3.12717 9.44171 3.4095C9.2323 3.69182 9.09195 4.01929 9.03191 4.36564C8.97188 4.71198 8.99383 5.06758 9.096 5.40392L9.226 5.83392L8.909 6.15192L2.655 12.4049C2.53035 12.5296 2.46032 12.6986 2.46032 12.8749C2.46032 13.0512 2.53035 13.2203 2.655 13.3449C2.77965 13.4696 2.94872 13.5396 3.125 13.5396C3.30129 13.5396 3.47035 13.4696 3.595 13.3449L9.848 7.08992L10.166 6.77192L10.596 6.90192C11.0138 7.02917 11.4596 7.03209 11.879 6.91032C12.2984 6.78854 12.6733 6.54734 12.958 6.21613C13.2426 5.88492 13.4248 5.47802 13.4821 5.04507C13.5395 4.61212 13.4696 4.17183 13.281 3.77792L11.781 5.27892C11.7118 5.35058 11.6291 5.40776 11.5376 5.44711C11.4461 5.48646 11.3477 5.50719 11.2482 5.5081C11.1486 5.50902 11.0498 5.49009 10.9576 5.45242C10.8654 5.41475 10.7817 5.3591 10.7112 5.28872C10.6408 5.21833 10.585 5.13462 10.5473 5.04246C10.5095 4.95031 10.4905 4.85156 10.4913 4.75197C10.4921 4.65239 10.5128 4.55397 10.552 4.46244C10.5913 4.37092 10.6484 4.28814 10.72 4.21892L12.22 2.71892C11.9172 2.57385 11.5857 2.49967 11.25 2.49992ZM7.5 4.74992C7.50007 3.98102 7.73649 3.23072 8.17724 2.60068C8.61799 1.97064 9.24176 1.49131 9.96404 1.22763C10.6863 0.963958 11.4722 0.928682 12.2152 1.12658C12.9582 1.32449 13.6224 1.746 14.1178 2.33402C14.6132 2.92204 14.9159 3.64814 14.9849 4.41394C15.0538 5.17974 14.8857 5.94824 14.5033 6.6153C14.1209 7.28236 13.5427 7.81575 12.847 8.1432C12.1513 8.47064 11.3718 8.57632 10.614 8.44592L10.061 8.99992L11 9.93992L11.47 9.46992L12 8.93992L12.53 9.46992L14.405 11.3449C14.611 11.5447 14.7752 11.7835 14.8881 12.0473C15.0009 12.3112 15.0602 12.5948 15.0623 12.8818C15.0645 13.1687 15.0096 13.4533 14.9008 13.7188C14.792 13.9843 14.6315 14.2256 14.4286 14.4285C14.2257 14.6314 13.9844 14.792 13.7189 14.9008C13.4533 15.0096 13.1688 15.0645 12.8819 15.0623C12.5949 15.0601 12.3112 15.0008 12.0474 14.888C11.7836 14.7751 11.5448 14.6109 11.345 14.4049L9.47 12.5299L8.94 11.9999L9.47 11.4699L9.94 10.9999L9 10.0599L4.655 14.4049C4.45521 14.6109 4.21645 14.7751 3.9526 14.888C3.68876 15.0008 3.4051 15.0601 3.11814 15.0623C2.83119 15.0645 2.54666 15.0096 2.28112 14.9008C2.01558 14.792 1.77433 14.6314 1.57141 14.4285C1.3685 14.2256 1.20797 13.9843 1.09916 13.7188C0.990361 13.4533 0.93546 13.1687 0.937655 12.8818C0.93985 12.5948 0.999098 12.3112 1.11195 12.0473C1.2248 11.7835 1.389 11.5447 1.595 11.3449L5.939 6.99992L3.5 4.55992L2.883 5.17692L2.376 4.41592L1.376 2.91592L1.035 2.40392L1.47 1.96992L1.97 1.46992L2.404 1.03492L2.916 1.37592L4.416 2.37592L5.177 2.88292L4.561 3.49992L7 5.93992L7.554 5.38592C7.51805 5.17583 7.49998 4.96306 7.5 4.74992ZM12 11.0599L13.345 12.4049C13.4697 12.5296 13.5397 12.6986 13.5397 12.8749C13.5397 13.0512 13.4697 13.2203 13.345 13.3449C13.2203 13.4696 13.0513 13.5396 12.875 13.5396C12.6987 13.5396 12.5297 13.4696 12.405 13.3449L11.061 11.9999L12 11.0599Z" fill="white"/>
</g>
</svg>
