<svg width="32" height="34" viewBox="0 0 32 34" fill="none" xmlns="http://www.w3.org/2000/svg">
<path id="Vector" d="M0 2.32203V31.6765C0.000196659 31.7402 0.0191916 31.8024 0.054603 31.8553C0.0900143 31.9082 0.140266 31.9495 0.199056 31.974C0.257846 31.9985 0.322558 32.0051 0.385077 31.993C0.447595 31.9808 0.505138 31.9505 0.550489 31.9058L15.835 17L0.550489 2.09273C0.505138 2.04801 0.447595 2.01768 0.385077 2.00554C0.322558 1.9934 0.257846 1.99999 0.199056 2.02448C0.140266 2.04897 0.0900143 2.09027 0.054603 2.1432C0.0191916 2.19614 0.000196659 2.25835 0 2.32203ZM22.2436 10.8752L3.07886 0.31652L3.0669 0.309798C2.73676 0.130534 2.42305 0.5772 2.69344 0.837132L17.7165 15.2021L22.2436 10.8752ZM2.69493 33.1629C2.42305 33.4228 2.73676 33.8695 3.0684 33.6902L3.08035 33.6835L22.2436 23.1249L17.7165 18.7964L2.69493 33.1629ZM29.9804 15.1327L24.6286 12.1853L19.5965 17L24.6286 21.8125L29.9804 18.8673C31.4361 18.0629 31.4361 15.9371 29.9804 15.1327Z" fill="white"/>
</svg>
