<svg width="51" height="42" viewBox="0 0 51 42" fill="none" xmlns="http://www.w3.org/2000/svg">
<g id="60e4a1e73807561737e7fb9a_icon-section-about-4-crypto-template.svg" opacity="0.84992" clip-path="url(#clip0_234_53)">
<path id="Vector" d="M37.9929 8.66105C35.8232 6.04346 32.8954 4.15655 29.6092 3.25787C26.323 2.35919 22.8384 2.49253 19.631 3.6397C16.4237 4.78686 13.6499 6.89195 11.6883 9.66759C9.72672 12.4433 8.67297 15.7543 8.67075 19.1486V23.652" stroke="white" stroke-opacity="0.4" stroke-width="4.27984" stroke-linecap="round" stroke-linejoin="round"/>
<path id="Vector_2" d="M13.9332 33.2137C16.2085 35.615 19.155 37.2807 22.3914 37.9952C25.6278 38.7096 29.0051 38.4398 32.0858 37.2208C35.1665 36.0017 37.8089 33.8896 39.6708 31.1579C41.5327 28.426 42.5284 25.2004 42.529 21.8986V18.9004" stroke="white" stroke-opacity="0.4" stroke-width="4.27984" stroke-linecap="round" stroke-linejoin="round"/>
<path id="Vector_3" d="M16.1653 16.2761C16.1558 16.4567 16.0959 16.6321 15.9892 16.7843L8.97527 26.6814C8.78178 26.9532 8.46329 27.1086 8.12923 27.0912C7.79516 27.0737 7.49473 26.886 7.33083 26.5955L1.39394 16.0224C1.22187 15.7147 1.23003 15.3375 1.41846 15.0382C1.60567 14.7376 1.94071 14.5637 2.29419 14.5821L15.245 15.2582C15.5985 15.2767 15.9135 15.4844 16.0681 15.8029C16.142 15.953 16.1737 16.1162 16.1653 16.2761Z" fill="white"/>
<path id="Vector_4" d="M34.65 25.2871C34.6562 25.1088 34.7123 24.9348 34.8149 24.7828L41.5638 14.8979C41.75 14.6264 42.0616 14.4676 42.3914 14.4791C42.7213 14.4906 43.021 14.6706 43.1877 14.9543L49.2279 25.2841C49.403 25.5848 49.4015 25.9571 49.2207 26.2556C49.0412 26.5553 48.7137 26.7327 48.3646 26.7205L35.5755 26.2756C35.2265 26.2636 34.9121 26.0638 34.754 25.7523C34.6785 25.6056 34.6444 25.4451 34.65 25.2871Z" fill="white"/>
</g>
<defs>
<clipPath id="clip0_234_53">
<rect width="50.4026" height="40.8435" fill="white" transform="translate(0.0188599 0.402588)"/>
</clipPath>
</defs>
</svg>
