<svg width="38" height="35" viewBox="0 0 38 35" fill="none" xmlns="http://www.w3.org/2000/svg">
<g id="60e4a1e73807565f69e7fb9b_icon-section-about-3-crypto-template.svg" opacity="0.84992" clip-path="url(#clip0_234_44)">
<path id="Vector" fill-rule="evenodd" clip-rule="evenodd" d="M36.8176 11.4475H29.0726C25.4683 11.4537 22.5485 14.294 22.5419 17.8001C22.5371 21.314 25.4602 24.1669 29.0726 24.1717H36.8241V24.7299C36.8241 30.8595 33.0995 34.4841 26.7966 34.4841H10.2741C3.96943 34.4841 0.244843 30.8595 0.244843 24.7299V11.3794C0.244843 5.24982 3.96943 1.6394 10.2741 1.6394H26.79C33.0931 1.6394 36.8176 5.24982 36.8176 11.3794V11.4475ZM8.91333 11.4332H19.2287H19.2352H19.2482C20.0205 11.43 20.6447 10.8179 20.6414 10.0652C20.6382 9.31403 20.0074 8.70676 19.2352 8.70992H8.91333C8.14599 8.71308 7.52333 9.31877 7.52008 10.0668C7.51682 10.8179 8.14111 11.43 8.91333 11.4332Z" fill="white"/>
<path id="Vector_2" opacity="0.4" d="M25.919 18.6032C26.3015 20.3388 27.8268 21.5599 29.5682 21.5282H35.5121C36.2367 21.5282 36.8244 20.9296 36.8244 20.1895V15.5702C36.8228 14.8318 36.2367 14.2316 35.5121 14.23H29.4282C27.4474 14.2363 25.8475 15.8767 25.8506 17.8981C25.8506 18.1348 25.874 18.3713 25.919 18.6032Z" fill="white"/>
<path id="Vector_3" d="M29.5074 19.7041C30.5175 19.7041 31.3363 18.8872 31.3363 17.8794C31.3363 16.8716 30.5175 16.0547 29.5074 16.0547C28.4973 16.0547 27.6784 16.8716 27.6784 17.8794C27.6784 18.8872 28.4973 19.7041 29.5074 19.7041Z" fill="white"/>
</g>
<defs>
<clipPath id="clip0_234_44">
<rect width="37.3675" height="33.8914" fill="white" transform="translate(0.245041 0.878662)"/>
</clipPath>
</defs>
</svg>
