<svg width="37" height="37" viewBox="0 0 37 37" fill="none" xmlns="http://www.w3.org/2000/svg">
<g id="60e4a1e7380756fecde7fb9c_icon-section-about-2-crypto-template.svg" opacity="0.84992" clip-path="url(#clip0_234_34)">
<path id="Vector" opacity="0.4" d="M26.9515 0.00952148H10.1389C4.01209 0.00952148 0.540771 3.48084 0.540771 9.6076V26.4043C0.540771 32.5311 4.01209 36.0024 10.1389 36.0024H26.9515C33.0783 36.0024 36.5336 32.5311 36.5336 26.4043V9.6076C36.5336 3.48084 33.0783 0.00952148 26.9515 0.00952148Z" fill="white"/>
<path id="Vector_2" d="M10.2013 13.271C9.38549 13.271 8.71359 13.9428 8.71359 14.7746V27.1402C8.71359 27.9561 9.38549 28.6279 10.2013 28.6279C11.0331 28.6279 11.705 27.9561 11.705 27.1402V14.7746C11.705 13.9428 11.0331 13.271 10.2013 13.271Z" fill="white"/>
<path id="Vector_3" d="M18.6003 7.36816C17.7845 7.36816 17.1126 8.04003 17.1126 8.87189V27.1402C17.1126 27.9561 17.7845 28.628 18.6003 28.628C19.4322 28.628 20.104 27.9561 20.104 27.1402V8.87189C20.104 8.04003 19.4322 7.36816 18.6003 7.36816Z" fill="white"/>
<path id="Vector_4" d="M26.8866 19.7979C26.0548 19.7979 25.3829 20.4698 25.3829 21.3016V27.1404C25.3829 27.9563 26.0548 28.6281 26.8706 28.6281C27.7024 28.6281 28.3743 27.9563 28.3743 27.1404V21.3016C28.3743 20.4698 27.7024 19.7979 26.8866 19.7979Z" fill="white"/>
</g>
<defs>
<clipPath id="clip0_234_34">
<rect width="36.4985" height="36.4985" fill="white" transform="translate(0.2565 0.00952148)"/>
</clipPath>
</defs>
</svg>
