<svg width="37" height="37" viewBox="0 0 37 37" fill="none" xmlns="http://www.w3.org/2000/svg">
<g id="60e4a1e73807563947e7fb99_icon-section-about-1-crypto-template.svg" opacity="0.84992" clip-path="url(#clip0_234_16)">
<path id="Vector" opacity="0.4" d="M2.79084 8.27612H23.4709C24.4275 8.27612 25.204 9.05214 25.204 10.0083C25.204 10.9644 24.4275 11.7405 23.4709 11.7405H2.79084C1.83413 11.7405 1.05768 10.9644 1.05768 10.0083C1.05768 9.05214 1.83413 8.27612 2.79084 8.27612Z" fill="white"/>
<g id="Mask group">
<mask id="mask0_234_16" style="mask-type:alpha" maskUnits="userSpaceOnUse" x="21" y="0" width="16" height="20">
<g id="Group">
<path id="Vector_2" fill-rule="evenodd" clip-rule="evenodd" d="M21.6199 19.5325V0.878906H36.5331V19.5325H21.6199Z" fill="white"/>
</g>
</mask>
<g mask="url(#mask0_234_16)">
<g id="Group_2">
<path id="Vector_3" d="M22.7903 1.03833C23.0088 1.03833 23.2241 1.09916 23.4145 1.2177L35.7999 9.01812C36.1401 9.23336 36.3477 9.60617 36.3477 10.0085C36.3477 10.411 36.1401 10.7838 35.7999 10.999L23.4145 18.7994C23.054 19.0256 22.5983 19.0397 22.2253 18.8322C21.8508 18.6263 21.6198 18.2348 21.6198 17.809V2.20816C21.6198 1.78233 21.8508 1.39084 22.2253 1.18495C22.4016 1.08668 22.5968 1.03833 22.7903 1.03833Z" fill="white"/>
</g>
</g>
</g>
<path id="Vector_4" opacity="0.4" d="M34.5682 28.7385H13.8882C12.9314 28.7385 12.155 27.9625 12.155 27.0064C12.155 26.0501 12.9314 25.2742 13.8882 25.2742H34.5682C35.5249 25.2742 36.3014 26.0501 36.3014 27.0064C36.3014 27.9625 35.5249 28.7385 34.5682 28.7385Z" fill="white"/>
<g id="Mask group_2">
<mask id="mask1_234_16" style="mask-type:alpha" maskUnits="userSpaceOnUse" x="0" y="17" width="16" height="20">
<g id="Group_3">
<path id="Vector_5" fill-rule="evenodd" clip-rule="evenodd" d="M15.6212 17.4822V36.1357H0.707947V17.4822H15.6212Z" fill="white"/>
</g>
</mask>
<g mask="url(#mask1_234_16)">
<g id="Group_4">
<path id="Vector_6" d="M14.4506 35.9764C14.2321 35.9764 14.0168 35.9156 13.8264 35.7971L1.44098 27.9967C1.10076 27.7814 0.893188 27.4086 0.893188 27.0062C0.893188 26.6038 1.10076 26.231 1.44098 26.0158L13.8264 18.2154C14.1869 17.9892 14.6426 17.9752 15.0155 18.1826C15.3901 18.3885 15.6211 18.78 15.6211 19.2058V34.8067C15.6211 35.2324 15.3901 35.6239 15.0155 35.8298C14.8392 35.9281 14.6441 35.9764 14.4506 35.9764Z" fill="white"/>
</g>
</g>
</g>
</g>
<defs>
<clipPath id="clip0_234_16">
<rect width="36.4985" height="35.6294" fill="white" transform="translate(0.399597 0.878906)"/>
</clipPath>
</defs>
</svg>
