<svg width="88" height="88" viewBox="0 0 88 88" fill="none" xmlns="http://www.w3.org/2000/svg">
<g id="Colorful">
<rect width="88" height="88" rx="24" fill="#F8F6F7"/>
<g id="vector">
<path id="Vector" d="M58.4975 30.3711C58.2351 45.9027 45.8292 58.4658 30.3671 58.9961V58.2963C30.3671 58.0722 30.3671 57.8481 30.3671 57.6239C30.1483 57.6239 29.9187 57.6348 29.6946 57.6348H29.3501C29.5524 49.8936 32.7728 42.9014 37.8795 37.7952C42.9643 32.7109 49.919 29.4964 57.6227 29.2722V29.7096C57.6227 29.9337 57.6227 30.1579 57.6227 30.382C57.8414 30.3765 58.071 30.3711 58.2952 30.3711H58.4975Z" fill="#99002F"/>
<path id="Vector_2" d="M70.4001 30.3711V42.475C70.4001 57.9027 57.8958 70.4002 42.4719 70.4002H30.3613V58.9961V58.2964C30.3613 58.0722 30.3613 57.8481 30.3613 57.6239C45.2494 57.2686 57.2506 45.2686 57.6115 30.382C57.8302 30.3766 58.0599 30.3711 58.284 30.3711H70.3891H70.4001Z" fill="#8BC74F"/>
<path id="Vector_3" d="M57.6279 17.6001V29.7094C57.6279 29.9336 57.6279 30.1577 57.6279 30.3819C42.7344 30.7372 30.7331 42.7372 30.3777 57.6238C30.159 57.6238 29.9294 57.6347 29.7052 57.6347H17.6001V45.5254C17.6001 30.1031 30.0989 17.6001 45.5283 17.6001H57.6334H57.6279Z" fill="#E8184E"/>
</g>
</g>
</svg>
