<svg width="128" height="32" viewBox="0 0 128 32" fill="none" xmlns="http://www.w3.org/2000/svg">
<g id="Group 1">
<g id="Group">
<path id="Vector" d="M31.9993 7.73926V15.0749C31.9993 24.4251 24.421 31.9993 15.0731 31.9993H7.7334V25.0878V24.6637C7.7334 24.5278 7.7334 24.392 7.7334 24.2561C16.7565 24.0408 24.03 16.768 24.2487 7.74588C24.3812 7.74257 24.5204 7.73926 24.6563 7.73926H31.9927H31.9993Z" fill="white"/>
<path id="Vector_2" d="M24.2593 0V7.33899C24.2593 7.47484 24.2593 7.61069 24.2593 7.74653C15.2329 7.9619 7.95941 15.2346 7.74403 24.2568C7.61148 24.2568 7.4723 24.2634 7.33644 24.2634H0V16.9244C0 7.57756 7.57503 0 16.9262 0H24.2626H24.2593Z" fill="white"/>
</g>
<g id="Union">
<path d="M61.7715 1.82788C59.9743 1.82788 58.8021 2.98991 58.8021 4.49612C58.8021 6.00234 59.9743 7.16437 61.7715 7.16437C63.4804 7.16437 64.628 6.0146 64.628 4.49612C64.628 2.97765 63.4804 1.82788 61.7715 1.82788Z" fill="white"/>
<path fill-rule="evenodd" clip-rule="evenodd" d="M70.233 2.99474C69.5199 2.99474 68.9536 3.23338 68.5667 3.62034C68.1797 4.00729 67.9411 4.57355 67.9411 5.28658V20.0417C67.9411 26.0091 72.4088 30.3887 78.6647 30.3887C84.9988 30.3887 89.4637 26.0439 89.4637 20.0417C89.4637 17.0115 88.4516 14.4179 86.713 12.585C84.9763 10.7542 82.4914 9.65714 79.4928 9.65714C76.8819 9.65714 74.8023 10.5248 73.2657 11.9541L72.5625 12.6082V5.28658C72.5625 4.57367 72.324 4.0083 71.9337 3.62179C71.543 3.23502 70.9674 2.99474 70.233 2.99474ZM74.263 15.0119C75.3486 13.7887 76.8762 13.1116 78.6271 13.1116C80.3953 13.1116 81.9324 13.7877 83.0234 15.0112C84.1112 16.2311 84.7293 17.9647 84.7293 20.0417C84.7293 22.1009 84.1107 23.8251 83.0228 25.0399C81.932 26.2582 80.3952 26.9342 78.6271 26.9342C76.8764 26.9342 75.3491 26.2572 74.2636 25.0392C73.1811 23.8246 72.5625 22.1009 72.5625 20.0417C72.5625 17.9647 73.1805 16.2316 74.263 15.0119Z" fill="white"/>
<path d="M43.4612 3.37115C42.6493 3.37115 42.0181 3.63155 41.5912 4.05455C41.1646 4.47727 40.9058 5.09827 40.9058 5.88883V27.871C40.9058 28.6409 41.1636 29.2643 41.5892 29.6938C42.0142 30.1227 42.6366 30.3887 43.4235 30.3887C44.2316 30.3887 44.8634 30.1212 45.2921 29.6925C45.7212 29.2634 45.9789 28.6408 45.9789 27.871V18.6071H54.7913C55.3913 18.6071 55.8635 18.4063 56.1847 18.0851C56.5059 17.7638 56.7068 17.2916 56.7068 16.6917C56.7068 16.0484 56.5022 15.5573 56.1814 15.2291C55.8612 14.9015 55.391 14.701 54.7913 14.701H45.9789V7.27729H55.1301C55.7307 7.27729 56.2142 7.07588 56.5457 6.75187C56.8762 6.42879 57.0832 5.95693 57.0832 5.36186C57.0832 4.72323 56.8723 4.23258 56.5423 3.90264C56.2119 3.57225 55.7304 3.37115 55.1301 3.37115H43.4612Z" fill="white"/>
<path d="M61.7339 9.65714C60.9786 9.65714 60.4047 9.89859 60.0205 10.2827C59.636 10.6672 59.4043 11.2319 59.4043 11.949V28.0968C59.4043 28.8098 59.643 29.3761 60.0299 29.7631C60.4169 30.15 60.9832 30.3887 61.6962 30.3887C62.4306 30.3887 63.0063 30.1484 63.3969 29.7616C63.7873 29.3751 64.0258 28.8097 64.0258 28.0968V11.949C64.0258 11.2359 63.7871 10.6697 63.4002 10.2827C63.0132 9.89577 62.4469 9.65714 61.7339 9.65714Z" fill="white"/>
<path fill-rule="evenodd" clip-rule="evenodd" d="M101.801 9.65714C95.9437 9.65714 91.6795 14.0145 91.6795 20.0417C91.6795 26.059 96.0092 30.3887 102.027 30.3887C106.644 30.3887 110.407 27.858 111.46 25.0516L111.464 25.0405L111.464 25.0385L111.468 25.0311L111.468 25.0308C111.679 24.5496 111.627 24.067 111.4 23.7106C111.176 23.3591 110.758 23.0948 110.157 23.0948C109.516 23.0948 108.778 23.4302 108.278 23.9064L108.272 23.9117L108.269 23.9185C107.166 25.864 104.976 27.16 102.629 27.16C100.93 27.16 99.4587 26.5786 98.3764 25.5321C97.2956 24.487 96.629 23.0033 96.4904 21.2414L96.455 20.7903H108.351C109.552 20.7903 110.495 20.3645 111.062 19.7415C111.622 19.1258 111.841 18.2907 111.564 17.3778L111.559 17.3614L111.555 17.3446C110.581 12.833 106.837 9.65714 101.801 9.65714ZM96.5668 18.0404C96.9204 14.7005 98.9992 12.3964 101.801 12.3964C104.638 12.3964 106.719 14.6983 107.073 18.0404L107.122 18.5027H96.5178L96.5668 18.0404Z" fill="white"/>
<path d="M117.011 9.65714C116.276 9.65714 115.701 9.89742 115.31 10.2842C114.92 10.6707 114.681 11.2361 114.681 11.949V28.0968C114.681 28.8098 114.92 29.3761 115.307 29.7631C115.694 30.15 116.26 30.3887 116.973 30.3887C117.728 30.3887 118.302 30.1472 118.686 29.7631C119.071 29.3786 119.303 28.8138 119.303 28.0968V17.9715C119.303 16.534 120.056 15.2994 121.201 14.4377C122.344 13.5778 123.893 13.074 125.555 13.074C126.255 13.074 126.713 12.8871 126.994 12.6198C127.273 12.3548 127.433 11.9582 127.433 11.422C127.433 10.8364 127.276 10.4168 126.984 10.1392C126.69 9.85836 126.189 9.65714 125.367 9.65714C123.289 9.65714 121.427 10.4085 119.955 11.6649L119.416 12.1246L119.274 11.4311C119.159 10.8759 118.895 10.4385 118.523 10.1388C118.15 9.83916 117.643 9.65714 117.011 9.65714Z" fill="white"/>
</g>
</g>
</svg>
